<svg height='100px' width='100px'  fill="#1A1A1A" xmlns="http://www.w3.org/2000/svg" data-name="Layer 1" viewBox="0 0 100 100" x="0px" y="0px"><title>A</title><path d="M58.31932,14.55819a9.60634,9.60634,0,0,0-16.63864,0L6.30209,75.836A9.606,9.606,0,0,0,14.62141,90.245H85.37859A9.606,9.606,0,0,0,93.69791,75.836Zm30.18292,67.884a3.54274,3.54274,0,0,1-3.12365,1.8035H14.62141a3.60675,3.60675,0,0,1-3.12365-5.41L46.87635,17.55783a3.60682,3.60682,0,0,1,6.2473,0L88.50224,78.83567A3.54271,3.54271,0,0,1,88.50224,82.44217Z"></path><path d="M50,63.88433a2.99979,2.99979,0,0,0,2.99964-2.99964V34.42886a2.99964,2.99964,0,0,0-5.99928,0V60.88469A2.99979,2.99979,0,0,0,50,63.88433Z"></path><path d="M50,69.917a3.1747,3.1747,0,1,0,3.17473,3.17467A3.17465,3.17465,0,0,0,50,69.917Z"></path></svg>