<svg xmlns="http://www.w3.org/2000/svg" xmlns:xlink="http://www.w3.org/1999/xlink" version="1.1" x="0px" y="0px" viewBox="0 0 100 100" style="enable-background:new 0 0 100 100;" xml:space="preserve"><style type="text/css">
	.st0{display:none;}
	.st1{display:inline;fill:none;stroke:#000000;stroke-width:2;stroke-miterlimit:10;}
	.st2{display:inline;}
	.st3{fill:#FFFFFF;}
	.st4{display:inline;fill:#FFFFFF;}
	.st5{display:inline;fill:none;stroke:#000000;stroke-width:3;stroke-miterlimit:10;}
</style><g><path d="M42.2,73.5L17.8,49.1l6.7-6.7l17.7,17.7L88.3,14l6.7,6.7L42.2,73.5z M56.7,64.4v12.1H14.4V34.3h42.2v6.1l9.4-9.4v-0.3   c0-3.2-2.6-5.8-5.8-5.8H10.8c-3.2,0-5.8,2.6-5.8,5.8v49.5c0,3.2,2.6,5.8,5.8,5.8h49.5c3.2,0,5.8-2.6,5.8-5.8V55L56.7,64.4z"></path></g><g class="st0"><path class="st1" d="M-25,61.5l-18.4,18.4c-0.8,0.8-2,0.8-2.8,0l-33.4-33.4c-0.4-0.4-0.6-0.9-0.6-1.4V32.7c0-0.5,0.2-1,0.6-1.4   l5.9-5.9c0.4-0.4,0.9-0.6,1.4-0.6h12.5c0.5,0,1,0.2,1.4,0.6L-25,58.7C-24.2,59.5-24.2,60.8-25,61.5z"></path><ellipse transform="matrix(0.7071 -0.7071 0.7071 0.7071 -45.2745 -39.0759)" class="st1" cx="-69.8" cy="35.1" rx="3.8" ry="3.8"></ellipse><g class="st2"><g><path d="M-85.5,21.5c4.5,4.5,9,9,13.4,13.4c1.4,1.4,3.5-0.8,2.1-2.1c-4.5-4.5-9-9-13.4-13.4C-84.7,18.1-86.9,20.2-85.5,21.5     L-85.5,21.5z"></path></g></g><circle class="st2" cx="-31.2" cy="25.4" r="10"></circle><circle class="st2" cx="-16.2" cy="50.4" r="10"></circle><circle class="st2" cx="-46.2" cy="50.4" r="10"></circle><path class="st2" d="M-91.4,52c-0.2,0-0.4,0-0.6,0c-2.8,0.2-5.4-1.3-6.8-3.8v0c-1.4-2.5-1.3-5.6,0.3-8c1.1-1.8,1.6-4,1.2-6.4   c-0.6-3.6-3.5-6.6-7.1-7.2c-5.7-1.1-10.7,3.3-10.7,8.8c0,1.9,0.6,3.6,1.5,5c1.5,2.3,1.6,5.2,0.2,7.6l-0.1,0.1   c-1.4,2.5-4.1,4-6.9,3.8c-0.7,0-1.4,0-2.1,0.1c-3.6,0.7-6.6,3.6-7.2,7.2c-1,5.7,3.3,10.6,8.9,10.6c3.5,0,6.5-2,8-4.9   c1.3-2.5,3.7-4.1,6.5-4.1h0.4c2.8,0,5.2,1.7,6.5,4.1c1.5,2.9,4.5,4.9,8,4.9c5,0,9.1-4.2,9-9.2C-82.6,56-86.6,52-91.4,52z"></path><g class="st2"><path class="st3" d="M-106.2,37.5l13,22.5h-26L-106.2,37.5 M-106.2,35.5L-120.9,61h29.4L-106.2,35.5L-106.2,35.5z"></path></g><circle class="st4" cx="-106.2" cy="35.5" r="3.9"></circle><circle class="st4" cx="-91.4" cy="61" r="3.9"></circle><circle class="st4" cx="-120.9" cy="61" r="3.9"></circle><circle class="st4" cx="-106.2" cy="52.4" r="3.9"></circle><g class="st2"><path d="M-26.4,44.3v13.4h-13.4V44.3H-26.4 M-25.2,41.3h-15.7c-1,0-1.8,0.8-1.8,1.8v15.7c0,1,0.8,1.8,1.8,1.8h15.7    c1,0,1.8-0.8,1.8-1.8V43.1C-23.4,42.1-24.2,41.3-25.2,41.3L-25.2,41.3z"></path></g><g class="st2"><polygon points="-31,56.7 -38.7,49 -36.6,46.9 -31,52.5 -16.3,37.8 -14.2,40   "></polygon></g><g class="st2"><polygon class="st3" points="-30.6,50.4 -16.8,36.7 -13,40.5 -28.2,55.6   "></polygon></g><g class="st2"><path d="M-68.6,39.1v13.4h-13.4V39.1H-68.6 M-67.5,36.1h-15.7c-1,0-1.8,0.8-1.8,1.8v15.7c0,1,0.8,1.8,1.8,1.8h15.7    c1,0,1.8-0.8,1.8-1.8V37.9C-65.6,36.9-66.5,36.1-67.5,36.1L-67.5,36.1z"></path></g><polyline class="st5" points="-79.9,42.7 -73.2,49.4 -57.5,33.7  "></polyline></g></svg>