<svg height='100px' width='100px'  fill="#1A1A1A" xmlns:dc="http://purl.org/dc/elements/1.1/" xmlns:cc="http://creativecommons.org/ns#" xmlns:rdf="http://www.w3.org/1999/02/22-rdf-syntax-ns#" xmlns:svg="http://www.w3.org/2000/svg" xmlns="http://www.w3.org/2000/svg" xmlns:sodipodi="http://sodipodi.sourceforge.net/DTD/sodipodi-0.dtd" xmlns:inkscape="http://www.inkscape.org/namespaces/inkscape" viewBox="0 0 48.000002 48" version="1.1" x="0px" y="0px"><g transform="translate(-3.6391207e-4,-16.000023)" style="" display="inline"><path style="color:#000000;font-style:normal;font-variant:normal;font-weight:normal;font-stretch:normal;font-size:medium;line-height:normal;font-family:sans-serif;text-indent:0;text-align:start;text-decoration:none;text-decoration-line:none;text-decoration-style:solid;text-decoration-color:#000000;letter-spacing:normal;word-spacing:normal;text-transform:none;direction:ltr;block-progression:tb;writing-mode:lr-tb;baseline-shift:baseline;text-anchor:start;white-space:normal;clip-rule:nonzero;display:inline;overflow:visible;visibility:visible;opacity:1;isolation:auto;mix-blend-mode:normal;color-interpolation:sRGB;color-interpolation-filters:linearRGB;solid-color:#000000;solid-opacity:1;fill:#1A1A1A;fill-opacity:1;fill-rule:nonzero;stroke:none;stroke-width:3.31249261;stroke-linecap:round;stroke-linejoin:round;stroke-miterlimit:4;stroke-dasharray:none;stroke-dashoffset:0;stroke-opacity:1;color-rendering:auto;image-rendering:auto;shape-rendering:auto;text-rendering:auto;enable-background:accumulate" d="m 23.981168,19.923332 a 1.4679198,1.5330545 0 0 0 -1.046164,0.732052 L 16.858342,31.3032 5.2317565,33.805665 a 1.4679198,1.5330545 0 0 0 -0.8078272,2.511494 l 7.8201467,9.325597 -1.313512,12.321626 a 1.4679198,1.5330545 0 0 0 2.036859,1.577439 l 10.909218,-4.884458 10.813411,5.111992 A 1.4679198,1.5330545 0 0 0 36.758604,58.23499 L 35.680995,45.889087 43.67852,36.728527 A 1.4679198,1.5330545 0 0 0 42.918279,34.200075 L 31.34302,31.455209 25.472347,20.6815 a 1.4679198,1.5330545 0 0 0 -1.491179,-0.758168 z m 0.185314,4.561089 4.944235,9.075215 a 1.4679198,1.5330545 0 0 0 0.951859,0.735404 l 9.748581,2.31232 -6.736298,7.715361 a 1.4679198,1.5330545 0 0 0 -0.376736,1.172247 l 0.907251,10.396288 -9.10735,-4.304315 a 1.4679198,1.5330545 0 0 0 -1.183505,-0.01334 l -9.188421,4.114537 1.107917,-10.376471 a 1.4679198,1.5330545 0 0 0 -0.355899,-1.17947 l -6.5858806,-7.85557 9.7918316,-2.106189 a 1.4679198,1.5330545 0 0 0 0.964101,-0.716642 l 5.118314,-8.969372 z"></path></g></svg>