<svg height='100px' width='100px'  fill="#1A1A1A" xmlns:x="http://ns.adobe.com/Extensibility/1.0/" xmlns:i="http://ns.adobe.com/AdobeIllustrator/10.0/" xmlns:graph="http://ns.adobe.com/Graphs/1.0/" xmlns="http://www.w3.org/2000/svg" xmlns:xlink="http://www.w3.org/1999/xlink" version="1.1" x="0px" y="0px" viewBox="0 0 100 100" style="enable-background:new 0 0 100 100;" xml:space="preserve"><g><g i:extraneous="self"><g><path d="M94.1,17.8L82.2,5.9c-4.6-4.6-12.1-4.6-16.7,0l-54,54c-2,2-3.4,4.6-4,7.5l-5,25.7c-0.2,1.2,0.1,2.4,1,3.3     c0.9,0.9,2.1,1.2,3.3,1l25.7-5c2.8-0.6,5.4-1.9,7.5-4l54-54C98.6,29.9,98.6,22.4,94.1,17.8z M10.9,89.1l3.7-19.3     c2.7,2.1,5.5,4.6,8.2,7.3c2.8,2.8,5.2,5.5,7.3,8.2L10.9,89.1z M36.6,81.5c-2.4-3.2-5.3-6.4-8.5-9.6c-3.2-3.2-6.5-6.1-9.6-8.5     l41.9-41.9c3.1,2.3,6.4,5.2,9.6,8.4c3.2,3.2,6.1,6.5,8.4,9.7L36.6,81.5z M88.8,29.3l-5.1,5.1c-2.4-3.2-5.3-6.4-8.5-9.6     c-3.2-3.2-6.5-6.1-9.6-8.5l5.1-5.1c1.7-1.7,4.5-1.7,6.2,0L88.8,23C90.5,24.8,90.5,27.6,88.8,29.3z"></path><path d="M59.1,35.6L34,60.7c-1.4,1.4-1.4,3.8,0,5.2c1.4,1.4,3.8,1.4,5.2,0l25.1-25.1c1.4-1.4,1.4-3.8,0-5.2     C62.9,34.2,60.6,34.2,59.1,35.6z"></path></g></g></g></svg>