<svg xmlns="http://www.w3.org/2000/svg" xmlns:xlink="http://www.w3.org/1999/xlink" version="1.1" x="0px" y="0px" viewBox="0 0 64 64" enable-background="new 0 0 64 64" xml:space="preserve"><g><path d="M19.045,24.757h4.46v-7.112c0-4.685,3.81-8.495,8.495-8.495c4.683,0,8.494,3.81,8.494,8.495v7.112h4.46   c0.911,0,1.826,0.111,2.721,0.328l1.137,0.277v-7.716c0-9.271-7.542-16.812-16.812-16.812S15.188,8.375,15.188,17.646v7.716   l1.137-0.277C17.22,24.868,18.135,24.757,19.045,24.757z"></path><path d="M44.955,26.411h-25.91c-5.824,0-10.545,4.721-10.545,10.545v14.612c0,6.406,5.193,11.599,11.599,11.599h23.801   c6.406,0,11.599-5.193,11.599-11.599V36.955C55.5,31.132,50.779,26.411,44.955,26.411z M36.011,46.036v6.085   c0,2.206-1.805,4.011-4.011,4.011c-2.206,0-4.013-1.804-4.013-4.011v-6.085c-1.767-1.256-2.922-3.32-2.922-5.654   c0-3.83,3.105-6.937,6.935-6.937c3.83,0,6.935,3.107,6.935,6.937C38.935,42.717,37.779,44.78,36.011,46.036z"></path></g></svg>